<?xml version="1.0" encoding="utf-8"?>
<!-- Generator: Adobe Illustrator 28.1.0, SVG Export Plug-In . SVG Version: 6.00 Build 0)  -->
<svg version="1.1" id="Capa_1" xmlns="http://www.w3.org/2000/svg" xmlns:xlink="http://www.w3.org/1999/xlink" x="0px" y="0px"
	 viewBox="0 0 155.9 240.9" style="enable-background:new 0 0 155.9 240.9;" xml:space="preserve">
<style type="text/css">
	.st0{fill:#08080A;}
</style>
<g>
	<path class="st0" d="M86.4,166.1c-0.4-0.5-0.7-0.5-1.1,0c-2.2,2.3-4.5,4.5-6.7,6.7c-0.6,0.6-0.9,0.5-1.4,0
		c-2.2-2.2-4.4-4.4-6.6-6.6c-0.5-0.5-0.7-0.6-1.2,0c-0.8,0.9-1.6,1.7-2.4,2.4c-0.4,0.4-0.4,0.6,0,1.1c3.5,3.5,6.9,6.9,10.4,10.4
		c0.2,0.2,0.3,0.3,0.5,0.5c0.2-0.2,0.3-0.3,0.5-0.4c3.5-3.5,7-7,10.6-10.6c0.4-0.4,0.3-0.6,0-0.9C88.1,167.8,87.2,167,86.4,166.1z"
		/>
	<path class="st0" d="M78,60.5c-18.4,0-33.4,15-33.4,33.4v34.5c0,18.4,15,33.4,33.4,33.4s33.4-15,33.4-33.4V93.9
		C111.4,75.5,96.4,60.5,78,60.5z M105.6,128.4c0,15.3-12.4,27.7-27.7,27.7s-27.7-12.4-27.7-27.7V93.9c0-15.3,12.4-27.7,27.7-27.7
		s27.7,12.4,27.7,27.7V128.4z"/>
	<path class="st0" d="M78,118.2c-3.1,0-5.6,2.5-5.6,5.6v6.3c0,3.1,2.5,5.6,5.6,5.6s5.6-2.5,5.6-5.6v-6.3
		C83.5,120.7,81,118.2,78,118.2z"/>
</g>
</svg>
